<svg style="display:block;pointer-events:none" viewBox="0 0 24 24" xmlns="http://www.w3.org/2000/svg" class="h-6 w-6 fill-neutral-400"><title>arrow-out</title><path d="M8.625 6.286c.598 0 1.125-.5 1.125-1.143C9.75 4.536 9.223 4 8.625 4h-2.25C4.512 4 3 5.536 3 7.429v9.142C3 18.464 4.512 20 6.375 20h2.25c.598 0 1.125-.5 1.125-1.143 0-.607-.527-1.143-1.125-1.143h-2.25a1.12 1.12 0 0 1-1.125-1.143V7.43c0-.608.492-1.143 1.125-1.143h2.25Zm12.094 6.357A.901.901 0 0 0 21 12c0-.214-.105-.429-.281-.607l-5.063-4.857c-.246-.25-.597-.286-.914-.179a.857.857 0 0 0-.492.786v2.571h-4.5c-.633 0-1.125.536-1.125 1.143v2.286a1.12 1.12 0 0 0 1.125 1.143h4.5v2.571c0 .357.176.679.492.786a.852.852 0 0 0 .914-.143l5.063-4.857Z"/></svg>