<svg style="display:block;pointer-events:none" viewBox="0 0 24 24" xmlns="http://www.w3.org/2000/svg" class="h-6 w-6 fill-neutral-400"><title>Bathroom</title><path d="M5.75 5.04688C5.75 4.73438 5.94531 4.5 6.25781 4.5C6.375 4.5 6.53125 4.57812 6.60938 4.65625L7.19531 5.24219C7.07812 5.59375 7 5.98438 7 6.375C7 7.15625 7.27344 7.85938 7.74219 8.40625C7.50781 8.79688 7.58594 9.26562 7.89844 9.53906C8.25 9.92969 8.83594 9.92969 9.1875 9.53906L13.2891 5.47656C13.6406 5.125 13.6406 4.53906 13.2891 4.1875C12.9766 3.875 12.5078 3.79688 12.1562 4.03125C11.6094 3.5625 10.8672 3.25 10.125 3.25C9.69531 3.25 9.30469 3.32812 8.95312 3.48438L8.36719 2.89844C7.82031 2.35156 7.03906 2 6.25781 2C4.57812 2 3.25 3.36719 3.25 5.04688V12C2.54688 12 2 12.5859 2 13.25C2 13.9531 2.54688 14.5 3.25 14.5H20.75C21.4141 14.5 22 13.9531 22 13.25C22 12.5859 21.4141 12 20.75 12H5.75V5.04688ZM3.25 15.75V16.375C3.25 17.5078 3.71875 18.4844 4.5 19.1875V20.75C4.5 21.4531 5.04688 22 5.75 22C6.41406 22 7 21.4531 7 20.75V20.125H17V20.75C17 21.4531 17.5469 22 18.25 22C18.9141 22 19.5 21.4531 19.5 20.75V19.1875C20.2422 18.4844 20.75 17.5078 20.75 16.375V15.75H3.25Z"/></svg>