<svg style="display:block;pointer-events:none" viewBox="0 0 24 24" xmlns="http://www.w3.org/2000/svg" class="w-6 h-6 fill-neutral-400"><title>Bed</title><path d="M3 5C3.53125 5 4 5.46875 4 6V14H11V9C11 8.46875 11.4375 8 12 8H19C20.6562 8 22 9.34375 22 11V18C22 18.5625 21.5312 19 21 19C20.4375 19 20 18.5625 20 18V17H4V18C4 18.5625 3.53125 19 3 19C2.4375 19 2 18.5625 2 18V6C2 5.46875 2.4375 5 3 5ZM7.5 13C6.09375 13 5 11.9062 5 10.5C5 9.125 6.09375 8 7.5 8C8.875 8 10 9.125 10 10.5C10 11.9062 8.875 13 7.5 13Z"/></svg>