<svg style="display:block;pointer-events:none" viewBox="0 0 24 24" xmlns="http://www.w3.org/2000/svg" class="h-6 w-6 fill-neutral-400"><title>arrow-in</title><path d="M15.375 6.286h2.25c.598 0 1.125.535 1.125 1.143v9.142c0 .643-.527 1.143-1.125 1.143h-2.25c-.633 0-1.125.536-1.125 1.143A1.12 1.12 0 0 0 15.375 20h2.25C19.488 20 21 18.464 21 16.571V7.43C21 5.536 19.488 4 17.625 4h-2.25c-.633 0-1.125.536-1.125 1.143a1.12 1.12 0 0 0 1.125 1.143Zm-.281 6.357a.901.901 0 0 0 .281-.643c0-.214-.105-.429-.281-.607L10.03 6.536c-.246-.25-.597-.286-.914-.179a.857.857 0 0 0-.492.786v2.571h-4.5C3.492 9.714 3 10.25 3 10.857v2.286a1.12 1.12 0 0 0 1.125 1.143h4.5v2.571c0 .357.176.679.492.786a.853.853 0 0 0 .914-.143l5.063-4.857Z"/></svg>