<svg style="display:block;pointer-events:none" viewBox="0 0 24 24" xmlns="http://www.w3.org/2000/svg" class="h-6 w-6 fill-primary-500"><title>People</title><path d="M11.9688 14C13.7812 14 15.2188 12.5625 15.2188 10.75C15.2188 8.96875 13.75 7.5 11.9688 7.5C10.1875 7.5 8.75 8.96875 8.75 10.75C8.71875 12.5625 10.1875 14 11.9688 14ZM12 9.75C12.5523 9.75 13 10.1977 13 10.75C13 11.3023 12.5523 11.75 12 11.75C11.4477 11.75 11 11.3023 11 10.75C11 10.1977 11.4477 9.75 12 9.75ZM18 9C19.375 9 20.5 7.90625 20.5 6.5C20.5 5.125 19.375 4 18 4C16.5938 4 15.5 5.125 15.5 6.5C15.5 7.90625 16.5938 9 18 9ZM13.5312 15H10.4375C7.96875 15 6 16.875 6 19.1875C6 19.6562 6.375 20 6.875 20H17.0938C17.5938 20 18 19.6562 18 19.1875C18 16.875 16 15 13.5312 15ZM8 18C8.3125 16.875 9 17 10.375 17H13.5C14.875 17 15.6562 16.875 16 18H8ZM19.2188 10H17.3125C16.9062 10 16.5312 10.125 16.1875 10.2812C16.1875 10.4375 16.2188 10.5938 16.2188 10.75C16.2188 11.8125 15.8438 12.7812 15.1875 13.5H21.4375C21.75 13.5 22 13.25 22 12.9375C22 11.3125 20.75 10 19.2188 10ZM7.71875 10.75C7.71875 10.5938 7.75 10.4375 7.78125 10.2812C7.4375 10.0938 7.0625 10 6.65625 10H4.75C3.21875 10 2 11.3125 2 12.9375C2 13.25 2.21875 13.5 2.53125 13.5H8.78125C8.125 12.7812 7.71875 11.8125 7.71875 10.75ZM6 9C7.375 9 8.5 7.90625 8.5 6.5C8.5 5.125 7.375 4 6 4C4.59375 4 3.5 5.125 3.5 6.5C3.5 7.90625 4.59375 9 6 9Z"/></svg>