<svg style="display:block;pointer-events:none" viewBox="0 0 24 24" xmlns="http://www.w3.org/2000/svg" class="h-6 w-6 shrink-0 fill-neutral-400"><title>Wifi</title><path d="M11.985 15c-1.125 0-2 .875-2 2 0 1.094.875 2 2 2 1.094 0 2-.906 2-2 0-1.125-.875-2-2-2Zm.031-5a8.918 8.918 0 0 0-5.969 2.25c-.406.375-.437 1-.093 1.438a.991.991 0 0 0 1.406.062A7.06 7.06 0 0 1 12.016 12a7.04 7.04 0 0 1 4.625 1.75c.188.188.406.25.656.25.282 0 .532-.094.75-.313a1.03 1.03 0 0 0-.093-1.437c-1.657-1.438-3.75-2.25-5.938-2.25Zm9.688-1.094C19.079 6.406 15.64 5 12.016 5 8.36 5 4.922 6.406 2.297 8.906c-.375.375-.406 1.031-.03 1.406.405.407 1.03.438 1.437.032C5.922 8.188 8.89 7 12.016 7c3.094 0 6.031 1.188 8.281 3.344.22.187.47.281.72.281s.5-.094.718-.313c.375-.374.344-1.03-.031-1.406Z"/></svg>