<svg style="display:block;pointer-events:none" viewBox="0 0 24 24" xmlns="http://www.w3.org/2000/svg" class="h-5 w-5 fill-neutral-400"><title>Door</title><path d="M13.1111 4.11676C13.1111 3.8002 12.9375 3.44846 12.6597 3.23742C12.3819 3.02638 12.0347 2.95603 11.7222 3.02638L5.47222 4.60918C4.74306 4.82022 4.22222 5.48852 4.22222 6.26234V18.7489H3.11111C2.48611 18.7489 2 19.2765 2 19.8745C2 20.5076 2.48611 21 3.11111 21H13.1111V4.11676ZM10.8889 11.9956C10.8889 12.6287 10.5069 13.1212 10.0556 13.1212C9.56944 13.1212 9.22222 12.6287 9.22222 11.9956C9.22222 11.3977 9.56944 10.8701 10.0556 10.8701C10.5069 10.8701 10.8889 11.3977 10.8889 11.9956ZM14.2222 7.4934H17.5556V21H20.8889C21.4792 21 22 20.5076 22 19.8745C22 19.2765 21.4792 18.7489 20.8889 18.7489H19.7778V7.4934C19.7778 6.26234 18.7708 5.24231 17.5556 5.24231H14.2222V7.4934Z"/></svg>