<svg style="display:block;pointer-events:none" viewBox="0 0 24 24" xmlns="http://www.w3.org/2000/svg" class="h-6 w-6 fill-neutral-400"><title>Paw</title><path d="M12.018 10.844c-2.813 0-6.75 4.4-6.75 7.189 0 1.252.913 1.967 2.496 1.967 1.722 0 2.847-.894 4.254-.894 1.37 0 2.496.894 4.218.894 1.547 0 2.497-.715 2.497-1.967 0-2.79-3.938-7.189-6.715-7.189Zm-5.204-.43c-.351-1.25-1.476-2.038-2.496-1.787-1.02.25-1.582 1.43-1.195 2.682.351 1.252 1.476 2.039 2.496 1.788 1.055-.25 1.582-1.466 1.195-2.682Zm2.989-.75c1.09-.286 1.617-1.753 1.23-3.326-.422-1.61-1.652-2.54-2.742-2.29-1.09.287-1.617 1.753-1.195 3.327.386 1.574 1.617 2.575 2.707 2.289Zm9.879-1.037c-1.02-.215-2.145.536-2.496 1.788-.387 1.252.175 2.432 1.195 2.682 1.02.215 2.145-.536 2.496-1.788.387-1.252-.175-2.432-1.195-2.682Zm-5.485 1.037c1.055.286 2.32-.715 2.707-2.29.422-1.537-.105-3.04-1.195-3.325-1.055-.286-2.32.715-2.707 2.289-.422 1.538.105 3.04 1.195 3.326Z"/></svg>