<svg style="display:block;pointer-events:none" viewBox="0 0 24 24" xmlns="http://www.w3.org/2000/svg" class="h-6 w-6 fill-neutral-400"><title>Cigarette</title><path d="M15.5 15h-12A1.5 1.5 0 0 0 2 16.5v2c0 .844.656 1.5 1.5 1.5h12c.25 0 .5-.219.5-.5v-4c0-.25-.25-.5-.5-.5Zm-1 3.5H9v-2h5.5v2Zm4.25-3.5h-1.5a.247.247 0 0 0-.25.25v4.5c0 .156.094.25.25.25h1.5c.125 0 .25-.094.25-.25v-4.5a.269.269 0 0 0-.25-.25Zm3 0h-1.5a.247.247 0 0 0-.25.25v4.5c0 .156.094.25.25.25h1.5c.125 0 .25-.094.25-.25v-4.5a.269.269 0 0 0-.25-.25Zm-2.469-8.25A.614.614 0 0 1 19 6.219V4.25a.269.269 0 0 0-.25-.25h-1.5a.247.247 0 0 0-.25.25v1.969c0 .687.313 1.343.875 1.718A4.631 4.631 0 0 1 20 11.813v.938c0 .156.094.25.25.25h1.5c.125 0 .25-.094.25-.25v-.938a6.105 6.105 0 0 0-2.719-5.062ZM17.22 8.438C16.469 7.905 16 7.125 16 6.217V4.25a.269.269 0 0 0-.25-.25h-1.5a.247.247 0 0 0-.25.25v2.094c0 1.375.75 2.531 1.875 3.343A2.608 2.608 0 0 1 17 11.813v.937c0 .156.094.25.25.25h1.5c.125 0 .25-.094.25-.25v-.938a4.096 4.096 0 0 0-1.781-3.374Z"/></svg>