<?xml version="1.0" encoding="UTF-8" standalone="no" ?>
<!DOCTYPE svg PUBLIC "-//W3C//DTD SVG 1.1//EN" "http://www.w3.org/Graphics/SVG/1.1/DTD/svg11.dtd">
<svg xmlns="http://www.w3.org/2000/svg" xmlns:xlink="http://www.w3.org/1999/xlink" version="1.1" width="640" height="480" viewBox="0 0 640 480" xml:space="preserve">
<desc>Created with Fabric.js 3.6.6</desc>
<defs>
</defs>
<g transform="matrix(1 0 0 1 320.2 247.7)"  >
<g style=""   >
		<g transform="matrix(1 0 0 1 0 -102.19)" id="Capa_1"  >
<path style="stroke: none; stroke-width: 1; stroke-dasharray: none; stroke-linecap: butt; stroke-dashoffset: 0; stroke-linejoin: miter; stroke-miterlimit: 4; fill: rgb(114,128,137); fill-rule: nonzero; opacity: 1;"  transform=" translate(-247.7, -145.51)" d="M 487.1 225.5 L 412 150.4 V 63.7 c 0 -15.7 -12.7 -28.4 -28.4 -28.4 c -15.7 0 -28.4 12.7 -28.4 28.4 v 29.9 l -55.9 -55.9 c -27.6 -27.6 -75.7 -27.6 -103.3 0 L 8.3 225.5 c -11.1 11.1 -11.1 29.1 0 40.2 c 11.1 11.1 29.1 11.1 40.2 0 L 236.2 77.9 c 6.1 -6.1 16.9 -6.1 23 0 l 187.7 187.7 c 5.6 5.6 12.8 8.3 20.1 8.3 c 7.3 0 14.5 -2.8 20.1 -8.3 C 498.2 254.6 498.2 236.6 487.1 225.5 z" stroke-linecap="round" />
</g>
		<g transform="matrix(1 0 0 1 0.05 55.34)" id="Capa_1"  >
<path style="stroke: none; stroke-width: 1; stroke-dasharray: none; stroke-linecap: butt; stroke-dashoffset: 0; stroke-linejoin: miter; stroke-miterlimit: 4; fill: rgb(114,128,137); fill-rule: nonzero; opacity: 1;"  transform=" translate(-247.75, -303.04)" d="M 257.6 131.8 c -5.5 -5.5 -14.3 -5.5 -19.7 0 L 72.7 296.9 c -2.6 2.6 -4.1 6.2 -4.1 9.9 v 120.4 c 0 28.3 22.9 51.2 51.2 51.2 h 81.8 V 351.7 h 92.3 v 126.6 h 81.8 c 28.3 0 51.2 -22.9 51.2 -51.2 V 306.8 c 0 -3.7 -1.5 -7.3 -4.1 -9.9 L 257.6 131.8 z" stroke-linecap="round" />
</g>
</g>
</g>
</svg>