<svg xmlns="http://www.w3.org/2000/svg" xmlns:xlink="http://www.w3.org/1999/xlink" viewBox="0 0 240 135" preserveAspectRatio="xMidYMid meet" style="width: 100%; height: 100%; transform: translate3d(0px, 0px, 0px); content-visibility: visible;"><defs><clipPath id="__lottie_element_2"><rect width="240" height="135" x="0" y="0"/></clipPath><clipPath id="__lottie_element_4"><path d="M0,0 L723,0 L723,420 L0,420z"/></clipPath><clipPath id="__lottie_element_9"><path d="M0,0 L160,0 L160,160 L0,160z"/></clipPath><filter id="__lottie_element_11" x="0%" y="0%" width="100%" height="100%"><feGaussianBlur in="SourceAlpha" result="filter_result_0_drop_shadow_1" stdDeviation="3"/><feOffset dx="0" dy="0" in="filter_result_0_drop_shadow_1" result="filter_result_0_drop_shadow_2"/><feFlood flood-color="#000000" flood-opacity="0.07999999999999999" result="filter_result_0_drop_shadow_3"/><feComposite in="filter_result_0_drop_shadow_3" in2="filter_result_0_drop_shadow_2" operator="in" result="filter_result_0_drop_shadow_4"/><feMerge result="filter_result_0"><feMergeNode in="filter_result_0_drop_shadow_4"/><feMergeNode in="SourceGraphic"/></feMerge></filter></defs><g clip-path="url(#__lottie_element_2)"><g clip-path="url(#__lottie_element_4)" transform="matrix(0.33000001311302185,0,0,0.33000001311302185,-0.29500579833984375,-1.8000030517578125)" opacity="1" style="display: block;"><g transform="matrix(3,0,0,3,105.88601684570312,76.34800720214844)" opacity="1" style="display: block;"><g opacity="1" transform="matrix(1,0,0,1,90.69100189208984,33.49399948120117)"><path fill="rgb(225,230,235)" fill-opacity="1" d=" M86.75800323486328,33.244998931884766 C86.75800323486328,33.244998931884766 -86.91100311279297,33.244998931884766 -86.91100311279297,33.244998931884766 C-87.37699890136719,33.244998931884766 -87.83799743652344,33.15399932861328 -88.26799774169922,32.97600173950195 C-88.697998046875,32.79899978637695 -89.08899688720703,32.53900146484375 -89.41699981689453,32.21099853515625 C-89.74500274658203,31.882999420166016 -90.00299835205078,31.493999481201172 -90.1780014038086,31.06599998474121 C-90.35299682617188,30.638999938964844 -90.44200134277344,30.18199920654297 -90.43800354003906,29.72100067138672 C-90.43800354003906,29.72100067138672 -90.28099822998047,-29.753999710083008 -90.28099822998047,-29.753999710083008 C-90.28099822998047,-30.68000030517578 -89.90899658203125,-31.56800079345703 -89.24700164794922,-32.222999572753906 C-88.58599853515625,-32.87699890136719 -87.69000244140625,-33.244998931884766 -86.75499725341797,-33.244998931884766 C-86.75499725341797,-33.244998931884766 86.91500091552734,-33.244998931884766 86.91500091552734,-33.244998931884766 C87.8499984741211,-33.244998931884766 88.74700164794922,-32.87699890136719 89.40799713134766,-32.222999572753906 C90.06900024414062,-31.56800079345703 90.44100189208984,-30.68000030517578 90.44100189208984,-29.753999710083008 C90.44100189208984,-29.753999710083008 90.28399658203125,29.72100067138672 90.28399658203125,29.72100067138672 C90.28900146484375,30.18199920654297 90.20099639892578,30.638999938964844 90.0260009765625,31.06599998474121 C89.8499984741211,31.493999481201172 89.59100341796875,31.882999420166016 89.26399993896484,32.21099853515625 C88.93599700927734,32.53900146484375 88.54499816894531,32.79899978637695 88.11599731445312,32.97600173950195 C87.68599700927734,33.15399932861328 87.2239990234375,33.244998931884766 86.75800323486328,33.244998931884766z"/></g><g opacity="1" transform="matrix(1,0,0,1,0,0)"><g opacity="1" transform="matrix(1,0,0,1,33.97200012207031,37.016998291015625)"><path fill="rgb(255,255,255)" fill-opacity="1" d=" M-2.1519999504089355,3.3380000591278076 C-2.1519999504089355,3.3380000591278076 5.380000114440918,-6.630000114440918 5.380000114440918,-6.630000114440918 C5.380000114440918,-6.630000114440918 15.065999984741211,6.630000114440918 15.065999984741211,6.630000114440918 C15.065999984741211,6.630000114440918 -15.065999984741211,6.630000114440918 -15.065999984741211,6.630000114440918 C-15.065999984741211,6.630000114440918 -7.534999847412109,-3.315000057220459 -7.534999847412109,-3.315000057220459 C-7.534999847412109,-3.315000057220459 -2.1519999504089355,3.3380000591278076 -2.1519999504089355,3.3380000591278076z"/></g><g opacity="1" transform="matrix(1,0,0,1,33.361000061035156,33.400001525878906)"><path stroke-linecap="butt" stroke-linejoin="miter" fill-opacity="0" stroke-miterlimit="4" stroke="rgb(255,255,255)" stroke-opacity="1" stroke-width="2" d=" M-15.284000396728516,-16.479000091552734 C-15.284000396728516,-16.479000091552734 15.284000396728516,-16.479000091552734 15.284000396728516,-16.479000091552734 C16.94099998474121,-16.479000091552734 18.284000396728516,-15.13599967956543 18.284000396728516,-13.479000091552734 C18.284000396728516,-13.479000091552734 18.284000396728516,13.479000091552734 18.284000396728516,13.479000091552734 C18.284000396728516,15.13599967956543 16.94099998474121,16.479000091552734 15.284000396728516,16.479000091552734 C15.284000396728516,16.479000091552734 -15.284000396728516,16.479000091552734 -15.284000396728516,16.479000091552734 C-16.94099998474121,16.479000091552734 -18.284000396728516,15.13599967956543 -18.284000396728516,13.479000091552734 C-18.284000396728516,13.479000091552734 -18.284000396728516,-13.479000091552734 -18.284000396728516,-13.479000091552734 C-18.284000396728516,-15.13599967956543 -16.94099998474121,-16.479000091552734 -15.284000396728516,-16.479000091552734z"/></g></g><g opacity="1" transform="matrix(1,0,0,1,112.08499908447266,43.55099868774414)"><path fill="rgb(255,255,255)" fill-opacity="1" d=" M46.40299987792969,-1.0950000286102295 C46.40299987792969,-1.0950000286102295 -46.402000427246094,-1.0950000286102295 -46.402000427246094,-1.0950000286102295 C-46.72800064086914,-1.0950000286102295 -47.04199981689453,-0.9800000190734863 -47.27299880981445,-0.7739999890327454 C-47.50400161743164,-0.5690000057220459 -47.632999420166016,-0.28999999165534973 -47.632999420166016,0 C-47.632999420166016,0.29100000858306885 -47.50400161743164,0.5690000057220459 -47.27299880981445,0.7749999761581421 C-47.04199981689453,0.9800000190734863 -46.72800064086914,1.0950000286102295 -46.402000427246094,1.0950000286102295 C-46.402000427246094,1.0950000286102295 46.40299987792969,1.0950000286102295 46.40299987792969,1.0950000286102295 C46.729000091552734,1.0950000286102295 47.04199981689453,0.9800000190734863 47.27299880981445,0.7749999761581421 C47.50299835205078,0.5690000057220459 47.632999420166016,0.29100000858306885 47.632999420166016,0 C47.632999420166016,-0.28999999165534973 47.50299835205078,-0.5690000057220459 47.27299880981445,-0.7739999890327454 C47.04199981689453,-0.9800000190734863 46.729000091552734,-1.0950000286102295 46.40299987792969,-1.0950000286102295z"/></g><g opacity="1" transform="matrix(1,0,0,1,112.49299621582031,33.65700149536133)"><path fill="rgb(255,255,255)" fill-opacity="1" d=" M46.40299987792969,-1.0950000286102295 C46.40299987792969,-1.0950000286102295 -46.402000427246094,-1.0950000286102295 -46.402000427246094,-1.0950000286102295 C-46.72800064086914,-1.0950000286102295 -47.04199981689453,-0.9800000190734863 -47.27299880981445,-0.7739999890327454 C-47.50400161743164,-0.5690000057220459 -47.632999420166016,-0.28999999165534973 -47.632999420166016,0 C-47.632999420166016,0.29100000858306885 -47.50400161743164,0.5690000057220459 -47.27299880981445,0.7749999761581421 C-47.04199981689453,0.9800000190734863 -46.72800064086914,1.0950000286102295 -46.402000427246094,1.0950000286102295 C-46.402000427246094,1.0950000286102295 46.40299987792969,1.0950000286102295 46.40299987792969,1.0950000286102295 C46.729000091552734,1.0950000286102295 47.04199981689453,0.9800000190734863 47.27299880981445,0.7749999761581421 C47.50299835205078,0.5690000057220459 47.632999420166016,0.29100000858306885 47.632999420166016,0 C47.632999420166016,-0.28999999165534973 47.50299835205078,-0.5690000057220459 47.27299880981445,-0.7739999890327454 C47.04199981689453,-0.9800000190734863 46.729000091552734,-1.0950000286102295 46.40299987792969,-1.0950000286102295z"/></g><g opacity="1" transform="matrix(1,0,0,1,105.9229965209961,22.704999923706055)"><path fill="rgb(255,255,255)" fill-opacity="1" d=" M-39.832000732421875,1.0950000286102295 C-39.832000732421875,1.0950000286102295 39.83300018310547,1.0950000286102295 39.83300018310547,1.0950000286102295 C40.159000396728516,1.0950000286102295 40.47200012207031,0.9800000190734863 40.702999114990234,0.7739999890327454 C40.93299865722656,0.5690000057220459 41.0620002746582,0.28999999165534973 41.0620002746582,0 C41.0620002746582,-0.29100000858306885 40.93299865722656,-0.5690000057220459 40.702999114990234,-0.7749999761581421 C40.47200012207031,-0.9800000190734863 40.159000396728516,-1.0950000286102295 39.83300018310547,-1.0950000286102295 C39.83300018310547,-1.0950000286102295 -39.832000732421875,-1.0950000286102295 -39.832000732421875,-1.0950000286102295 C-40.15800094604492,-1.0950000286102295 -40.47100067138672,-0.9800000190734863 -40.70199966430664,-0.7749999761581421 C-40.93299865722656,-0.5690000057220459 -41.0620002746582,-0.29100000858306885 -41.0620002746582,0 C-41.0620002746582,0.28999999165534973 -40.93299865722656,0.5690000057220459 -40.70199966430664,0.7739999890327454 C-40.47100067138672,0.9800000190734863 -40.15800094604492,1.0950000286102295 -39.832000732421875,1.0950000286102295z"/></g></g><g style="display: none;" transform="matrix(2.7700064182281494,0,0,2.7700064182281494,7.144926071166992,51.25992202758789)" opacity="0.026083749999997963"><g opacity="1" transform="matrix(1,0,0,1,11.026000022888184,11.532999992370605)"><path fill="rgb(255,190,0)" fill-opacity="1" d=" M10.559000015258789,-0.28999999165534973 C7.159999847412109,-0.5789999961853027 3.181999921798706,-1.2300000190734863 2.0250000953674316,-2.38700008392334 C0.8679999709129333,-3.5450000762939453 0.14499999582767487,-7.883999824523926 -0.07199999690055847,-11.065999984741211 C-0.07199999690055847,-11.282999992370605 -0.3619999885559082,-11.282999992370605 -0.4339999854564667,-11.065999984741211 C-0.6510000228881836,-7.883999824523926 -1.0850000381469727,-3.181999921798706 -2.38700008392334,-1.9520000219345093 C-3.615999937057495,-0.7229999899864197 -7.738999843597412,-0.5059999823570251 -10.559000015258789,-0.21699999272823334 C-10.776000022888184,-0.21699999272823334 -10.776000022888184,0.0729999989271164 -10.559000015258789,0.0729999989271164 C-7.665999889373779,0.28999999165534973 -2.8929998874664307,1.1579999923706055 -1.8079999685287476,2.242000102996826 C-0.5059999823570251,3.5439999103546143 -0.5059999823570251,8.100000381469727 -0.3619999885559082,11.13700008392334 C-0.3619999885559082,11.281999588012695 -0.14499999582767487,11.281999588012695 -0.14499999582767487,11.13700008392334 C0.14499999582767487,8.027000427246094 0.7229999899864197,3.4719998836517334 2.0969998836517334,2.0980000495910645 C3.3269999027252197,0.8679999709129333 7.23199987411499,0.2160000056028366 10.559000015258789,-0.0010000000474974513 C10.776000022888184,0.07199999690055847 10.776000022888184,-0.28999999165534973 10.559000015258789,-0.28999999165534973z"/></g></g><g style="display: none;" transform="matrix(1.880007266998291,0,0,1.880007266998291,49.37991714477539,13.939912796020508)" opacity="0.005351250000000363"><g opacity="1" transform="matrix(1,0,0,1,11.026000022888184,11.532999992370605)"><path fill="rgb(255,190,0)" fill-opacity="1" d=" M10.559000015258789,-0.28999999165534973 C7.159999847412109,-0.5789999961853027 3.181999921798706,-1.2300000190734863 2.0250000953674316,-2.38700008392334 C0.8679999709129333,-3.5450000762939453 0.14499999582767487,-7.883999824523926 -0.07199999690055847,-11.065999984741211 C-0.07199999690055847,-11.282999992370605 -0.3619999885559082,-11.282999992370605 -0.4339999854564667,-11.065999984741211 C-0.6510000228881836,-7.883999824523926 -1.0850000381469727,-3.181999921798706 -2.38700008392334,-1.9520000219345093 C-3.615999937057495,-0.7229999899864197 -7.738999843597412,-0.5059999823570251 -10.559000015258789,-0.21699999272823334 C-10.776000022888184,-0.21699999272823334 -10.776000022888184,0.0729999989271164 -10.559000015258789,0.0729999989271164 C-7.665999889373779,0.28999999165534973 -2.8929998874664307,1.1579999923706055 -1.8079999685287476,2.242000102996826 C-0.5059999823570251,3.5439999103546143 -0.5059999823570251,8.100000381469727 -0.3619999885559082,11.13700008392334 C-0.3619999885559082,11.281999588012695 -0.14499999582767487,11.281999588012695 -0.14499999582767487,11.13700008392334 C0.14499999582767487,8.027000427246094 0.7229999899864197,3.4719998836517334 2.0969998836517334,2.0980000495910645 C3.3269999027252197,0.8679999709129333 7.23199987411499,0.2160000056028366 10.559000015258789,-0.0010000000474974513 C10.776000022888184,0.07199999690055847 10.776000022888184,-0.28999999165534973 10.559000015258789,-0.28999999165534973z"/></g></g><g style="display: none;" transform="matrix(1.113715648651123,0,0,1.113715648651123,689.6922607421875,257.1354064941406)" opacity="0.015731249999998198"><g opacity="1" transform="matrix(1,0,0,1,11.026000022888184,11.532999992370605)"><path fill="rgb(255,190,0)" fill-opacity="1" d=" M10.559000015258789,-0.28999999165534973 C7.159999847412109,-0.5789999961853027 3.181999921798706,-1.2300000190734863 2.0250000953674316,-2.38700008392334 C0.8679999709129333,-3.5450000762939453 0.14499999582767487,-7.883999824523926 -0.07199999690055847,-11.065999984741211 C-0.07199999690055847,-11.282999992370605 -0.3619999885559082,-11.282999992370605 -0.4339999854564667,-11.065999984741211 C-0.6510000228881836,-7.883999824523926 -1.0850000381469727,-3.181999921798706 -2.38700008392334,-1.9520000219345093 C-3.615999937057495,-0.7229999899864197 -7.738999843597412,-0.5059999823570251 -10.559000015258789,-0.21699999272823334 C-10.776000022888184,-0.21699999272823334 -10.776000022888184,0.0729999989271164 -10.559000015258789,0.0729999989271164 C-7.665999889373779,0.28999999165534973 -2.8929998874664307,1.1579999923706055 -1.8079999685287476,2.242000102996826 C-0.5059999823570251,3.5439999103546143 -0.5059999823570251,8.100000381469727 -0.3619999885559082,11.13700008392334 C-0.3619999885559082,11.281999588012695 -0.14499999582767487,11.281999588012695 -0.14499999582767487,11.13700008392334 C0.14499999582767487,8.027000427246094 0.7229999899864197,3.4719998836517334 2.0969998836517334,2.0980000495910645 C3.3269999027252197,0.8679999709129333 7.23199987411499,0.2160000056028366 10.559000015258789,-0.0010000000474974513 C10.776000022888184,0.07199999690055847 10.776000022888184,-0.28999999165534973 10.559000015258789,-0.28999999165534973z"/></g></g><g style="display: none;" transform="matrix(2.770000696182251,0,0,2.770000696182251,639.14501953125,291.2599792480469)" opacity="0.015653750000000174"><g opacity="1" transform="matrix(1,0,0,1,11.026000022888184,11.532999992370605)"><path fill="rgb(255,190,0)" fill-opacity="1" d=" M10.559000015258789,-0.28999999165534973 C7.159999847412109,-0.5789999961853027 3.181999921798706,-1.2300000190734863 2.0250000953674316,-2.38700008392334 C0.8679999709129333,-3.5450000762939453 0.14499999582767487,-7.883999824523926 -0.07199999690055847,-11.065999984741211 C-0.07199999690055847,-11.282999992370605 -0.3619999885559082,-11.282999992370605 -0.4339999854564667,-11.065999984741211 C-0.6510000228881836,-7.883999824523926 -1.0850000381469727,-3.181999921798706 -2.38700008392334,-1.9520000219345093 C-3.615999937057495,-0.7229999899864197 -7.738999843597412,-0.5059999823570251 -10.559000015258789,-0.21699999272823334 C-10.776000022888184,-0.21699999272823334 -10.776000022888184,0.0729999989271164 -10.559000015258789,0.0729999989271164 C-7.665999889373779,0.28999999165534973 -2.8929998874664307,1.1579999923706055 -1.8079999685287476,2.242000102996826 C-0.5059999823570251,3.5439999103546143 -0.5059999823570251,8.100000381469727 -0.3619999885559082,11.13700008392334 C-0.3619999885559082,11.281999588012695 -0.14499999582767487,11.281999588012695 -0.14499999582767487,11.13700008392334 C0.14499999582767487,8.027000427246094 0.7229999899864197,3.4719998836517334 2.0969998836517334,2.0980000495910645 C3.3269999027252197,0.8679999709129333 7.23199987411499,0.2160000056028366 10.559000015258789,-0.0010000000474974513 C10.776000022888184,0.07199999690055847 10.776000022888184,-0.28999999165534973 10.559000015258789,-0.28999999165534973z"/></g></g><g style="display: none;" transform="matrix(2.770002841949463,0,0,2.770002841949463,7.144968032836914,51.25996398925781)" opacity="0.020956249999997567"><g opacity="1" transform="matrix(1,0,0,1,11.026000022888184,11.532999992370605)"><path fill="rgb(255,190,0)" fill-opacity="1" d=" M10.559000015258789,-0.28999999165534973 C7.159999847412109,-0.5789999961853027 3.181999921798706,-1.2300000190734863 2.0250000953674316,-2.38700008392334 C0.8679999709129333,-3.5450000762939453 0.14499999582767487,-7.883999824523926 -0.07199999690055847,-11.065999984741211 C-0.07199999690055847,-11.282999992370605 -0.3619999885559082,-11.282999992370605 -0.4339999854564667,-11.065999984741211 C-0.6510000228881836,-7.883999824523926 -1.0850000381469727,-3.181999921798706 -2.38700008392334,-1.9520000219345093 C-3.615999937057495,-0.7229999899864197 -7.738999843597412,-0.5059999823570251 -10.559000015258789,-0.21699999272823334 C-10.776000022888184,-0.21699999272823334 -10.776000022888184,0.0729999989271164 -10.559000015258789,0.0729999989271164 C-7.665999889373779,0.28999999165534973 -2.8929998874664307,1.1579999923706055 -1.8079999685287476,2.242000102996826 C-0.5059999823570251,3.5439999103546143 -0.5059999823570251,8.100000381469727 -0.3619999885559082,11.13700008392334 C-0.3619999885559082,11.281999588012695 -0.14499999582767487,11.281999588012695 -0.14499999582767487,11.13700008392334 C0.14499999582767487,8.027000427246094 0.7229999899864197,3.4719998836517334 2.0969998836517334,2.0980000495910645 C3.3269999027252197,0.8679999709129333 7.23199987411499,0.2160000056028366 10.559000015258789,-0.0010000000474974513 C10.776000022888184,0.07199999690055847 10.776000022888184,-0.28999999165534973 10.559000015258789,-0.28999999165534973z"/></g></g><g style="display: none;" transform="matrix(1.8800033330917358,0,0,1.8800033330917358,49.37995910644531,13.939960479736328)" opacity="0.0001299999999932311"><g opacity="1" transform="matrix(1,0,0,1,11.026000022888184,11.532999992370605)"><path fill="rgb(255,190,0)" fill-opacity="1" d=" M10.559000015258789,-0.28999999165534973 C7.159999847412109,-0.5789999961853027 3.181999921798706,-1.2300000190734863 2.0250000953674316,-2.38700008392334 C0.8679999709129333,-3.5450000762939453 0.14499999582767487,-7.883999824523926 -0.07199999690055847,-11.065999984741211 C-0.07199999690055847,-11.282999992370605 -0.3619999885559082,-11.282999992370605 -0.4339999854564667,-11.065999984741211 C-0.6510000228881836,-7.883999824523926 -1.0850000381469727,-3.181999921798706 -2.38700008392334,-1.9520000219345093 C-3.615999937057495,-0.7229999899864197 -7.738999843597412,-0.5059999823570251 -10.559000015258789,-0.21699999272823334 C-10.776000022888184,-0.21699999272823334 -10.776000022888184,0.0729999989271164 -10.559000015258789,0.0729999989271164 C-7.665999889373779,0.28999999165534973 -2.8929998874664307,1.1579999923706055 -1.8079999685287476,2.242000102996826 C-0.5059999823570251,3.5439999103546143 -0.5059999823570251,8.100000381469727 -0.3619999885559082,11.13700008392334 C-0.3619999885559082,11.281999588012695 -0.14499999582767487,11.281999588012695 -0.14499999582767487,11.13700008392334 C0.14499999582767487,8.027000427246094 0.7229999899864197,3.4719998836517334 2.0969998836517334,2.0980000495910645 C3.3269999027252197,0.8679999709129333 7.23199987411499,0.2160000056028366 10.559000015258789,-0.0010000000474974513 C10.776000022888184,0.07199999690055847 10.776000022888184,-0.28999999165534973 10.559000015258789,-0.28999999165534973z"/></g></g><g style="display: none;" transform="matrix(1.1153883934020996,0,0,1.1153883934020996,689.6730346679688,257.1153259277344)" opacity="0.010524999999994122"><g opacity="1" transform="matrix(1,0,0,1,11.026000022888184,11.532999992370605)"><path fill="rgb(255,190,0)" fill-opacity="1" d=" M10.559000015258789,-0.28999999165534973 C7.159999847412109,-0.5789999961853027 3.181999921798706,-1.2300000190734863 2.0250000953674316,-2.38700008392334 C0.8679999709129333,-3.5450000762939453 0.14499999582767487,-7.883999824523926 -0.07199999690055847,-11.065999984741211 C-0.07199999690055847,-11.282999992370605 -0.3619999885559082,-11.282999992370605 -0.4339999854564667,-11.065999984741211 C-0.6510000228881836,-7.883999824523926 -1.0850000381469727,-3.181999921798706 -2.38700008392334,-1.9520000219345093 C-3.615999937057495,-0.7229999899864197 -7.738999843597412,-0.5059999823570251 -10.559000015258789,-0.21699999272823334 C-10.776000022888184,-0.21699999272823334 -10.776000022888184,0.0729999989271164 -10.559000015258789,0.0729999989271164 C-7.665999889373779,0.28999999165534973 -2.8929998874664307,1.1579999923706055 -1.8079999685287476,2.242000102996826 C-0.5059999823570251,3.5439999103546143 -0.5059999823570251,8.100000381469727 -0.3619999885559082,11.13700008392334 C-0.3619999885559082,11.281999588012695 -0.14499999582767487,11.281999588012695 -0.14499999582767487,11.13700008392334 C0.14499999582767487,8.027000427246094 0.7229999899864197,3.4719998836517334 2.0969998836517334,2.0980000495910645 C3.3269999027252197,0.8679999709129333 7.23199987411499,0.2160000056028366 10.559000015258789,-0.0010000000474974513 C10.776000022888184,0.07199999690055847 10.776000022888184,-0.28999999165534973 10.559000015258789,-0.28999999165534973z"/></g></g><g style="display: none;" transform="matrix(2.7699999809265137,0,0,2.7699999809265137,639.14501953125,291.260009765625)" opacity="0.010582499999999868"><g opacity="1" transform="matrix(1,0,0,1,11.026000022888184,11.532999992370605)"><path fill="rgb(255,190,0)" fill-opacity="1" d=" M10.559000015258789,-0.28999999165534973 C7.159999847412109,-0.5789999961853027 3.181999921798706,-1.2300000190734863 2.0250000953674316,-2.38700008392334 C0.8679999709129333,-3.5450000762939453 0.14499999582767487,-7.883999824523926 -0.07199999690055847,-11.065999984741211 C-0.07199999690055847,-11.282999992370605 -0.3619999885559082,-11.282999992370605 -0.4339999854564667,-11.065999984741211 C-0.6510000228881836,-7.883999824523926 -1.0850000381469727,-3.181999921798706 -2.38700008392334,-1.9520000219345093 C-3.615999937057495,-0.7229999899864197 -7.738999843597412,-0.5059999823570251 -10.559000015258789,-0.21699999272823334 C-10.776000022888184,-0.21699999272823334 -10.776000022888184,0.0729999989271164 -10.559000015258789,0.0729999989271164 C-7.665999889373779,0.28999999165534973 -2.8929998874664307,1.1579999923706055 -1.8079999685287476,2.242000102996826 C-0.5059999823570251,3.5439999103546143 -0.5059999823570251,8.100000381469727 -0.3619999885559082,11.13700008392334 C-0.3619999885559082,11.281999588012695 -0.14499999582767487,11.281999588012695 -0.14499999582767487,11.13700008392334 C0.14499999582767487,8.027000427246094 0.7229999899864197,3.4719998836517334 2.0969998836517334,2.0980000495910645 C3.3269999027252197,0.8679999709129333 7.23199987411499,0.2160000056028366 10.559000015258789,-0.0010000000474974513 C10.776000022888184,0.07199999690055847 10.776000022888184,-0.28999999165534973 10.559000015258789,-0.28999999165534973z"/></g></g><g style="display: block;" transform="matrix(2.7700061798095703,0,0,2.7700061798095703,7.144927978515625,51.259925842285156)" opacity="1"><g opacity="1" transform="matrix(1,0,0,1,11.026000022888184,11.532999992370605)"><path fill="rgb(255,190,0)" fill-opacity="1" d=" M10.559000015258789,-0.28999999165534973 C7.159999847412109,-0.5789999961853027 3.181999921798706,-1.2300000190734863 2.0250000953674316,-2.38700008392334 C0.8679999709129333,-3.5450000762939453 0.14499999582767487,-7.883999824523926 -0.07199999690055847,-11.065999984741211 C-0.07199999690055847,-11.282999992370605 -0.3619999885559082,-11.282999992370605 -0.4339999854564667,-11.065999984741211 C-0.6510000228881836,-7.883999824523926 -1.0850000381469727,-3.181999921798706 -2.38700008392334,-1.9520000219345093 C-3.615999937057495,-0.7229999899864197 -7.738999843597412,-0.5059999823570251 -10.559000015258789,-0.21699999272823334 C-10.776000022888184,-0.21699999272823334 -10.776000022888184,0.0729999989271164 -10.559000015258789,0.0729999989271164 C-7.665999889373779,0.28999999165534973 -2.8929998874664307,1.1579999923706055 -1.8079999685287476,2.242000102996826 C-0.5059999823570251,3.5439999103546143 -0.5059999823570251,8.100000381469727 -0.3619999885559082,11.13700008392334 C-0.3619999885559082,11.281999588012695 -0.14499999582767487,11.281999588012695 -0.14499999582767487,11.13700008392334 C0.14499999582767487,8.027000427246094 0.7229999899864197,3.4719998836517334 2.0969998836517334,2.0980000495910645 C3.3269999027252197,0.8679999709129333 7.23199987411499,0.2160000056028366 10.559000015258789,-0.0010000000474974513 C10.776000022888184,0.07199999690055847 10.776000022888184,-0.28999999165534973 10.559000015258789,-0.28999999165534973z"/></g></g><g style="display: block;" transform="matrix(1.880007266998291,0,0,1.880007266998291,49.37991714477539,13.939912796020508)" opacity="1"><g opacity="1" transform="matrix(1,0,0,1,11.026000022888184,11.532999992370605)"><path fill="rgb(255,190,0)" fill-opacity="1" d=" M10.559000015258789,-0.28999999165534973 C7.159999847412109,-0.5789999961853027 3.181999921798706,-1.2300000190734863 2.0250000953674316,-2.38700008392334 C0.8679999709129333,-3.5450000762939453 0.14499999582767487,-7.883999824523926 -0.07199999690055847,-11.065999984741211 C-0.07199999690055847,-11.282999992370605 -0.3619999885559082,-11.282999992370605 -0.4339999854564667,-11.065999984741211 C-0.6510000228881836,-7.883999824523926 -1.0850000381469727,-3.181999921798706 -2.38700008392334,-1.9520000219345093 C-3.615999937057495,-0.7229999899864197 -7.738999843597412,-0.5059999823570251 -10.559000015258789,-0.21699999272823334 C-10.776000022888184,-0.21699999272823334 -10.776000022888184,0.0729999989271164 -10.559000015258789,0.0729999989271164 C-7.665999889373779,0.28999999165534973 -2.8929998874664307,1.1579999923706055 -1.8079999685287476,2.242000102996826 C-0.5059999823570251,3.5439999103546143 -0.5059999823570251,8.100000381469727 -0.3619999885559082,11.13700008392334 C-0.3619999885559082,11.281999588012695 -0.14499999582767487,11.281999588012695 -0.14499999582767487,11.13700008392334 C0.14499999582767487,8.027000427246094 0.7229999899864197,3.4719998836517334 2.0969998836517334,2.0980000495910645 C3.3269999027252197,0.8679999709129333 7.23199987411499,0.2160000056028366 10.559000015258789,-0.0010000000474974513 C10.776000022888184,0.07199999690055847 10.776000022888184,-0.28999999165534973 10.559000015258789,-0.28999999165534973z"/></g></g><g style="display: block;" transform="matrix(1.0804792642593384,0,0,1.0804792642593384,690.074462890625,257.53424072265625)" opacity="1"><g opacity="1" transform="matrix(1,0,0,1,11.026000022888184,11.532999992370605)"><path fill="rgb(255,190,0)" fill-opacity="1" d=" M10.559000015258789,-0.28999999165534973 C7.159999847412109,-0.5789999961853027 3.181999921798706,-1.2300000190734863 2.0250000953674316,-2.38700008392334 C0.8679999709129333,-3.5450000762939453 0.14499999582767487,-7.883999824523926 -0.07199999690055847,-11.065999984741211 C-0.07199999690055847,-11.282999992370605 -0.3619999885559082,-11.282999992370605 -0.4339999854564667,-11.065999984741211 C-0.6510000228881836,-7.883999824523926 -1.0850000381469727,-3.181999921798706 -2.38700008392334,-1.9520000219345093 C-3.615999937057495,-0.7229999899864197 -7.738999843597412,-0.5059999823570251 -10.559000015258789,-0.21699999272823334 C-10.776000022888184,-0.21699999272823334 -10.776000022888184,0.0729999989271164 -10.559000015258789,0.0729999989271164 C-7.665999889373779,0.28999999165534973 -2.8929998874664307,1.1579999923706055 -1.8079999685287476,2.242000102996826 C-0.5059999823570251,3.5439999103546143 -0.5059999823570251,8.100000381469727 -0.3619999885559082,11.13700008392334 C-0.3619999885559082,11.281999588012695 -0.14499999582767487,11.281999588012695 -0.14499999582767487,11.13700008392334 C0.14499999582767487,8.027000427246094 0.7229999899864197,3.4719998836517334 2.0969998836517334,2.0980000495910645 C3.3269999027252197,0.8679999709129333 7.23199987411499,0.2160000056028366 10.559000015258789,-0.0010000000474974513 C10.776000022888184,0.07199999690055847 10.776000022888184,-0.28999999165534973 10.559000015258789,-0.28999999165534973z"/></g></g><g style="display: block;" transform="matrix(2.779040575027466,0,0,2.779040575027466,639.041015625,291.1515197753906)" opacity="1"><g opacity="1" transform="matrix(1,0,0,1,11.026000022888184,11.532999992370605)"><path fill="rgb(255,190,0)" fill-opacity="1" d=" M10.559000015258789,-0.28999999165534973 C7.159999847412109,-0.5789999961853027 3.181999921798706,-1.2300000190734863 2.0250000953674316,-2.38700008392334 C0.8679999709129333,-3.5450000762939453 0.14499999582767487,-7.883999824523926 -0.07199999690055847,-11.065999984741211 C-0.07199999690055847,-11.282999992370605 -0.3619999885559082,-11.282999992370605 -0.4339999854564667,-11.065999984741211 C-0.6510000228881836,-7.883999824523926 -1.0850000381469727,-3.181999921798706 -2.38700008392334,-1.9520000219345093 C-3.615999937057495,-0.7229999899864197 -7.738999843597412,-0.5059999823570251 -10.559000015258789,-0.21699999272823334 C-10.776000022888184,-0.21699999272823334 -10.776000022888184,0.0729999989271164 -10.559000015258789,0.0729999989271164 C-7.665999889373779,0.28999999165534973 -2.8929998874664307,1.1579999923706055 -1.8079999685287476,2.242000102996826 C-0.5059999823570251,3.5439999103546143 -0.5059999823570251,8.100000381469727 -0.3619999885559082,11.13700008392334 C-0.3619999885559082,11.281999588012695 -0.14499999582767487,11.281999588012695 -0.14499999582767487,11.13700008392334 C0.14499999582767487,8.027000427246094 0.7229999899864197,3.4719998836517334 2.0969998836517334,2.0980000495910645 C3.3269999027252197,0.8679999709129333 7.23199987411499,0.2160000056028366 10.559000015258789,-0.0010000000474974513 C10.776000022888184,0.07199999690055847 10.776000022888184,-0.28999999165534973 10.559000015258789,-0.28999999165534973z"/></g></g><g transform="matrix(3,0,0,3,208.63900756835938,141.99400329589844)" opacity="1" style="display: block;"><g opacity="1" transform="matrix(0.8578855991363525,0.5138407349586487,-0.5138407349586487,0.8578855991363525,113.08470916748047,40.04035949707031)"><path fill="rgb(246,188,174)" fill-opacity="1" d=" M13.289999961853027,-14.189000129699707 C13.04800033569336,-14.487000465393066 12.61400032043457,-14.487000465393066 12.324999809265137,-14.189000129699707 C11.312000274658203,-13.147000312805176 10.347000122070312,-12.104999542236328 9.333999633789062,-11.062999725341797 C8.85200023651123,-10.517999649047852 8.369000434875488,-10.022000312805176 7.88700008392334,-9.47700023651123 C7.742000102996826,-9.32800006866455 7.5980000495910645,-9.178000450134277 7.453000068664551,-8.979999542236328 C7.308000087738037,-9.029000282287598 7.211999893188477,-9.277000427246094 7.308000087738037,-9.425999641418457 C7.308000087738037,-9.425999641418457 7.260000228881836,-9.376999855041504 7.163000106811523,-9.277000427246094 C7.163000106811523,-9.277000427246094 11.071000099182129,-19.003000259399414 11.071000099182129,-19.003000259399414 C11.21500015258789,-19.350000381469727 11.071000099182129,-19.795000076293945 10.781000137329102,-19.993999481201172 C10.395000457763672,-20.242000579833984 9.913000106811523,-20.0939998626709 9.720000267028809,-19.746999740600586 C9.720000267028809,-19.746999740600586 4.414000034332275,-11.013999938964844 4.414000034332275,-11.013999938964844 C4.172999858856201,-10.913999557495117 3.9800000190734863,-11.062999725341797 4.124000072479248,-11.41100025177002 C4.124000072479248,-11.41100025177002 7.211999893188477,-22.426000595092773 7.211999893188477,-22.426000595092773 C7.308000087738037,-22.822999954223633 7.114999771118164,-23.31800079345703 6.729000091552734,-23.466999053955078 C6.295000076293945,-23.665000915527344 5.763999938964844,-23.466999053955078 5.572000026702881,-23.020000457763672 C5.572000026702881,-23.020000457763672 0.843999981880188,-12.156000137329102 0.843999981880188,-12.156000137329102 C0.7480000257492065,-11.857999801635742 0.5070000290870667,-11.907999992370605 0.4580000042915344,-12.156000137329102 C0.4580000042915344,-12.156000137329102 0.4580000042915344,-12.305000305175781 0.4580000042915344,-12.305000305175781 C0.4580000042915344,-12.305000305175781 0.3619999885559082,-22.524999618530273 0.3619999885559082,-22.524999618530273 C0.3619999885559082,-22.922000885009766 0.07199999690055847,-23.2189998626709 -0.3140000104904175,-23.31800079345703 C-0.7480000257492065,-23.368000030517578 -1.1339999437332153,-23.070999145507812 -1.1820000410079956,-22.624000549316406 C-1.1820000410079956,-22.624000549316406 -2.628999948501587,-11.907999992370605 -2.628999948501587,-11.907999992370605 C-2.628999948501587,-11.857999801635742 -2.677000045776367,-11.758000373840332 -2.677000045776367,-11.609000205993652 C-2.869999885559082,-9.873000144958496 -3.3529999256134033,-9.47700023651123 -3.690000057220459,-10.270000457763672 C-3.73799991607666,-10.418999671936035 -3.7869999408721924,-10.567999839782715 -3.8350000381469727,-10.666999816894531 C-3.8350000381469727,-10.666999816894531 -3.8350000381469727,-10.765999794006348 -3.8350000381469727,-10.765999794006348 C-3.882999897003174,-10.864999771118164 -3.930999994277954,-11.013999938964844 -3.9800000190734863,-11.11299991607666 C-4.2210001945495605,-11.708000183105469 -4.510000228881836,-12.305000305175781 -4.8480000495910645,-12.850000381469727 C-4.993000030517578,-13.14799976348877 -5.185999870300293,-13.395000457763672 -5.379000186920166,-13.692999839782715 C-5.571000099182129,-13.991000175476074 -5.763999938964844,-14.23900032043457 -6.053999900817871,-14.53600025177002 C-6.3429999351501465,-14.833999633789062 -6.826000213623047,-14.883999824523926 -7.163000106811523,-14.635000228881836 C-7.5970001220703125,-14.338000297546387 -7.693999767303467,-13.791999816894531 -7.40500020980835,-13.345999717712402 C-7.40500020980835,-13.345999717712402 -7.355999946594238,-13.246999740600586 -7.355999946594238,-13.246999740600586 C-7.260000228881836,-13.097999572753906 -7.114999771118164,-12.850000381469727 -7.019000053405762,-12.60200023651123 C-6.921999931335449,-12.354000091552734 -6.826000213623047,-12.104999542236328 -6.729000091552734,-11.857000350952148 C-6.535999774932861,-11.361000061035156 -6.392000198364258,-10.815999984741211 -6.295000076293945,-10.319999694824219 C-6.198999881744385,-9.77400016784668 -6.1020002365112305,-9.277999877929688 -6.053999900817871,-8.732000350952148 C-6.00600004196167,-8.187000274658203 -5.956999778747559,-7.590000152587891 -5.908999919891357,-6.994999885559082 C-5.763999938964844,-4.811999797821045 -5.813000202178955,-2.5799999237060547 -6.247000217437744,-0.5960000157356262 C-9.767999649047852,8.979999542236328 -13.531000137329102,18.704999923706055 -13.579000473022461,18.854000091552734 C-13.579000473022461,18.854000091552734 -1.9049999713897705,23.665000915527344 -1.9049999713897705,23.665000915527344 C-1.6160000562667847,22.92099952697754 5.13700008392334,5.458000183105469 9.093000411987305,-6.002999782562256 C9.333999633789062,-6.547999858856201 9.67199993133545,-7.193999767303467 10.057999610900879,-7.789000034332275 C10.395000457763672,-8.383999824523926 10.781000137329102,-9.029000282287598 11.166999816894531,-9.625 C11.890999794006348,-10.864999771118164 12.663000106811523,-12.057000160217285 13.434000015258789,-13.246999740600586 C13.579000473022461,-13.595000267028809 13.531000137329102,-13.991000175476074 13.289999961853027,-14.189000129699707z"/></g><g opacity="1" transform="matrix(0.9656103253364563,-0.25999361276626587,0.25999361276626587,0.9656103253364563,-2.976024627685547,24.4865779876709)"><path fill="rgb(246,188,174)" fill-opacity="1" d=" M6.324999809265137,-6.9710001945495605 C6.374000072479248,-7.517000198364258 6.423999786376953,-8.112000465393066 6.4730000495910645,-8.708000183105469 C6.5229997634887695,-9.253000259399414 6.571000099182129,-9.75 6.718999862670898,-10.295000076293945 C6.817999839782715,-10.840999603271484 6.9670000076293945,-11.336999893188477 7.164999961853027,-11.833000183105469 C7.263999938964844,-12.081999778747559 7.361999988555908,-12.329999923706055 7.460000038146973,-12.57800006866455 C7.559000015258789,-12.826000213623047 7.708000183105469,-13.074000358581543 7.807000160217285,-13.222999572753906 C7.807000160217285,-13.222999572753906 7.85699987411499,-13.321999549865723 7.85699987411499,-13.321999549865723 C8.104000091552734,-13.668999671936035 8.053999900817871,-14.164999961853027 7.757999897003174,-14.463000297546387 C7.4120001792907715,-14.8100004196167 6.818999767303467,-14.8100004196167 6.4730000495910645,-14.463000297546387 C6.177000045776367,-14.164999961853027 5.979000091552734,-13.916999816894531 5.781000137329102,-13.619999885559082 C5.584000110626221,-13.371000289916992 5.386000156402588,-13.074000358581543 5.23799991607666,-12.776000022888184 C4.892000198364258,-12.229999542236328 4.5960001945495605,-11.635000228881836 4.3480000495910645,-11.038999557495117 C4.298999786376953,-10.9399995803833 4.25,-10.791000366210938 4.199999809265137,-10.692000389099121 C4.199999809265137,-10.642999649047852 4.198999881744385,-10.642999649047852 4.150000095367432,-10.593000411987305 C4.099999904632568,-10.444000244140625 4.052000045776367,-10.295000076293945 4.002999782562256,-10.196000099182129 C3.6070001125335693,-9.402000427246094 3.1630001068115234,-9.798999786376953 2.9649999141693115,-11.53600025177002 C2.9649999141693115,-11.6850004196167 2.9149999618530273,-11.784000396728516 2.9149999618530273,-11.833000183105469 C2.9149999618530273,-11.833000183105469 1.4320000410079956,-22.649999618530273 1.4320000410079956,-22.649999618530273 C1.3830000162124634,-23.047000885009766 1.0379999876022339,-23.3439998626709 0.6430000066757202,-23.3439998626709 C0.1979999989271164,-23.3439998626709 -0.14800000190734863,-22.996999740600586 -0.14800000190734863,-22.549999237060547 C-0.14800000190734863,-22.549999237060547 -0.24699999392032623,-12.279999732971191 -0.24699999392032623,-12.279999732971191 C-0.24699999392032623,-12.279999732971191 -0.24699999392032623,-12.130999565124512 -0.24699999392032623,-12.130999565124512 C-0.29600000381469727,-11.883000373840332 -0.5440000295639038,-11.833000183105469 -0.6430000066757202,-12.130999565124512 C-0.6430000066757202,-12.130999565124512 -5.484000205993652,-23.047000885009766 -5.484000205993652,-23.047000885009766 C-5.682000160217285,-23.444000244140625 -6.126999855041504,-23.642000198364258 -6.521999835968018,-23.542999267578125 C-6.9670000076293945,-23.393999099731445 -7.263000011444092,-22.898000717163086 -7.114999771118164,-22.451000213623047 C-7.114999771118164,-22.451000213623047 -3.9519999027252197,-11.435999870300293 -3.9519999027252197,-11.435999870300293 C-3.803999900817871,-10.989999771118164 -4.151000022888184,-10.840999603271484 -4.447000026702881,-11.138999938964844 C-4.447000026702881,-11.138999938964844 -10.079000473022461,-18.729999542236328 -10.079000473022461,-18.729999542236328 C-10.326000213623047,-19.027999877929688 -10.722000122070312,-19.12700080871582 -11.067999839782715,-18.97800064086914 C-11.463000297546387,-18.780000686645508 -11.611000061035156,-18.284000396728516 -11.413000106811523,-17.88599967956543 C-11.413000106811523,-17.88599967956543 -7.214000225067139,-9.352999687194824 -7.214000225067139,-9.352999687194824 C-7.114999771118164,-9.154000282287598 -7.215000152587891,-8.855999946594238 -7.461999893188477,-8.956000328063965 C-7.610000133514404,-9.104000091552734 -7.757999897003174,-9.253000259399414 -7.955999851226807,-9.402000427246094 C-8.49899959564209,-9.89799976348877 -9.041999816894531,-10.345000267028809 -9.585000038146973,-10.840999603271484 C-10.67199993133545,-11.784000396728516 -11.809000015258789,-12.626999855041504 -12.944999694824219,-13.520000457763672 C-13.192000389099121,-13.718999862670898 -13.588000297546387,-13.718999862670898 -13.835000038146973,-13.520000457763672 C-14.130999565124512,-13.272000312805176 -14.180999755859375,-12.826000213623047 -13.934000015258789,-12.527999877929688 C-13.045000076293945,-11.435999870300293 -12.105999946594238,-10.345000267028809 -11.265999794006348,-9.253000259399414 C-10.821999549865723,-8.708000183105469 -10.425999641418457,-8.161999702453613 -10.031000137329102,-7.616000175476074 C-9.833000183105469,-7.317999839782715 -9.635000228881836,-7.070000171661377 -9.486000061035156,-6.771999835968018 C-9.288999557495117,-6.52400016784668 -9.140000343322754,-6.2270002365112305 -9.090999603271484,-6.0279998779296875 C-4.989999771118164,5.433000087738037 1.9259999990463257,22.898000717163086 2.2230000495910645,23.642000198364258 C2.2230000495910645,23.642000198364258 14.180000305175781,18.82900047302246 14.180000305175781,18.82900047302246 C14.130999565124512,18.68000030517578 10.277999877929688,9.005000114440918 6.671000003814697,-0.6200000047683716 C6.22599983215332,-2.6050000190734863 6.177000045776367,-4.788000106811523 6.324999809265137,-6.9710001945495605z"/></g><g opacity="1" transform="matrix(1,0,0,1,53.349998474121094,64.71900177001953)"><path fill-rule="evenodd" fill="rgb(255,110,20)" fill-opacity="1" d=" M55.077999114990234,-8.970999717712402 C55.84299850463867,-9.74899959564209 55.775001525878906,-10.984999656677246 54.96799850463867,-11.718000411987305 C54.96799850463867,-11.718000411987305 43.3380012512207,-22.27899932861328 43.3380012512207,-22.27899932861328 C42.608001708984375,-22.941999435424805 41.56700134277344,-22.905000686645508 40.8650016784668,-22.211999893188477 C38.78499984741211,-20.160999298095703 34.15999984741211,-15.878999710083008 28.104999542236328,-12.222999572753906 C18.253999710083008,-6.275000095367432 6.34499979019165,-2.009000062942505 -1.8229999542236328,-1.225000023841858 C-15.081999778747559,0.057999998331069946 -32.89099884033203,-20.509000778198242 -37.731998443603516,-29.79199981689453 C-38.2400016784668,-30.766000747680664 -39.42399978637695,-31.187999725341797 -40.417999267578125,-30.718000411987305 C-40.417999267578125,-30.718000411987305 -47.41400146484375,-27.415000915527344 -47.41400146484375,-27.415000915527344 C-47.41400146484375,-27.415000915527344 -54.388999938964844,-24.17300033569336 -54.388999938964844,-24.17300033569336 C-55.41299819946289,-23.695999145507812 -55.858001708984375,-22.459999084472656 -55.3390007019043,-21.457000732421875 C-53.499000549316406,-17.90399932861328 -49.029998779296875,-9.812000274658203 -42.525001525878906,-2.260999917984009 C-37.54399871826172,3.5199999809265137 -32.6609992980957,7.552000045776367 -28.01300048828125,10.347000122070312 C-26.118000030517578,11.486000061035156 -22.70599937438965,13.229999542236328 -22.70599937438965,15.484000205993652 C-22.70599937438965,15.484000205993652 -24.038999557495117,51.612998962402344 -24.038999557495117,51.612998962402344 C-24.038999557495117,52.71799850463867 -23.14299964904785,53.612998962402344 -22.038999557495117,53.612998962402344 C-22.038999557495117,53.612998962402344 25.082000732421875,53.612998962402344 25.082000732421875,53.612998962402344 C26.3799991607666,53.612998962402344 27.333999633789062,52.39699935913086 27.024999618530273,51.137001037597656 C27.024999618530273,51.137001037597656 23.02199935913086,20.236000061035156 23.02199935913086,20.236000061035156 C22.04400062561035,14.406000137329102 21.08799934387207,12.187999725341797 26.591999053955078,10.102999687194824 C40.67900085449219,4.767000198364258 51.395999908447266,-5.228000164031982 55.077999114990234,-8.970999717712402z"/></g></g><g transform="matrix(3,-0.000025168897991534323,0.000025168897991534323,3,336.1303405761719,268.98724365234375)" opacity="1" style="display: block;"><g opacity="1" transform="matrix(1,0,0,1,10.104000091552734,15.62399959564209)"><path fill="rgb(246,188,174)" fill-opacity="1" d=" M7.688000202178955,-1.0420000553131104 C7.688000202178955,-1.0420000553131104 6.97599983215332,-4.673999786376953 6.97599983215332,-4.673999786376953 C6.263000011444092,-8.402000427246094 2.444000005722046,-10.871000289916992 -1.527999997138977,-10.289999961853027 C-5.499000072479248,-9.66100025177002 -8.095999717712402,-6.173999786376953 -7.382999897003174,-2.444999933242798 C-7.382999897003174,-2.444999933242798 -6.670000076293945,1.1859999895095825 -6.670000076293945,1.1859999895095825 C-6.415999889373779,2.3970000743865967 -5.9070000648498535,3.4609999656677246 -5.0920000076293945,4.333000183105469 C-5.0920000076293945,4.333000183105469 -5.0920000076293945,5.494999885559082 -5.0920000076293945,5.494999885559082 C-5.0920000076293945,8.449000358581543 -2.5460000038146973,10.869999885559082 0.5600000023841858,10.869999885559082 C3.6659998893737793,10.869999885559082 6.211999893188477,8.449000358581543 6.211999893188477,5.494999885559082 C6.211999893188477,5.494999885559082 6.211999893188477,4.429999828338623 6.211999893188477,4.429999828338623 C7.485000133514404,2.928999900817871 8.095999717712402,0.9919999837875366 7.688000202178955,-1.0420000553131104z"/></g><g opacity="1" transform="matrix(1,0,0,1,14.404999732971191,21.152999877929688)"><path fill="rgb(255,110,20)" fill-opacity="1" d=" M-1.9980000257492065,1.8009999990463257 C-2.177999973297119,1.8009999990463257 -2.312000036239624,1.7039999961853027 -2.3570001125335693,1.5119999647140503 C-2.4019999504089355,1.3200000524520874 -2.2679998874664307,1.0809999704360962 -2.0889999866485596,1.0329999923706055 C-0.38199999928474426,0.6010000109672546 0.875,-0.26499998569488525 1.684000015258789,-1.5609999895095825 C1.7740000486373901,-1.753000020980835 1.9980000257492065,-1.7999999523162842 2.177999973297119,-1.656000018119812 C2.3570001125335693,-1.559999942779541 2.4019999504089355,-1.2719999551773071 2.2679998874664307,-1.128000020980835 C1.36899995803833,0.31299999356269836 -0.06700000166893005,1.2730000019073486 -1.9079999923706055,1.753000020980835 C-1.9529999494552612,1.8009999990463257 -1.9980000257492065,1.8009999990463257 -1.9980000257492065,1.8009999990463257z"/></g><g opacity="1" transform="matrix(1,0,0,1,13.689000129699707,13.321000099182129)"><path fill="rgb(255,255,255)" fill-opacity="1" d=" M1.1460000276565552,1.2940000295639038 C-0.5839999914169312,1.6009999513626099 -2.2679998874664307,0.9869999885559082 -1.4259999990463257,-0.37299999594688416 C-0.6779999732971191,-1.6009999513626099 0.6790000200271606,-0.7229999899864197 1.5670000314712524,-0.06599999964237213 C2.2690000534057617,0.5049999952316284 1.6610000133514404,1.2059999704360962 1.1460000276565552,1.2940000295639038z"/></g><g opacity="1" transform="matrix(1,0,0,1,5.547999858856201,14.10200023651123)"><path fill="rgb(246,188,174)" fill-opacity="1" d=" M0.0010000000474974513,2.9509999752044678 C1.628000020980835,2.9509999752044678 2.946000099182129,1.6299999952316284 2.946000099182129,0 C2.946000099182129,-1.6299999952316284 1.628000020980835,-2.9509999752044678 0.0010000000474974513,-2.9509999752044678 C-1.6260000467300415,-2.9509999752044678 -2.946000099182129,-1.6299999952316284 -2.946000099182129,0 C-2.946000099182129,1.6299999952316284 -1.6260000467300415,2.9509999752044678 0.0010000000474974513,2.9509999752044678z"/></g><g opacity="1" transform="matrix(1,0,0,1,8.201000213623047,10.741000175476074)"><path fill="rgb(151,66,11)" fill-opacity="1" d=" M6.492000102996826,-7.491000175476074 C5.642000198364258,-7.091000080108643 4.697999954223633,-6.742000102996826 4.178999900817871,-6.8420000076293945 C4.697999954223633,-7.440999984741211 4.88700008392334,-8.390000343322754 4.934000015258789,-9.33899974822998 C4.980999946594238,-10.038000106811523 4.13100004196167,-10.38599967956543 3.7070000171661377,-9.836999893188477 C2.7149999141693115,-8.48900032043457 1.0149999856948853,-6.741000175476074 -1.8179999589920044,-5.493000030517578 C-2.997999906539917,-5.0929999351501465 -4.22599983215332,-4.294000148773193 -5.406000137329102,-2.8459999561309814 C-7.71999979019165,0.05000000074505806 -6.964000225067139,5.642000198364258 -3.611999988555908,9.48799991607666 C-2.8559999465942383,10.38599967956543 -2.7149999141693115,9.788000106811523 -2.6679999828338623,9.388999938964844 C-2.384000062942505,7.290999889373779 -4.508999824523926,0.7990000247955322 -4.508999824523926,0.7990000247955322 C-4.508999824523926,0.7990000247955322 -2.8559999465942383,4.044000148773193 -2.8559999465942383,4.044000148773193 C-2.8559999465942383,4.044000148773193 -1.1089999675750732,3.244999885559082 -1.1089999675750732,3.244999885559082 C-1.1089999675750732,3.244999885559082 -0.07100000232458115,-0.8489999771118164 -2.6679999828338623,-2.5959999561309814 C-3.0450000762939453,-2.8459999561309814 -3.0450000762939453,-3.046999931335449 -2.7149999141693115,-3.046999931335449 C-1.3459999561309814,-2.947000026702881 2.621000051498413,-3.3459999561309814 4.744999885559082,-4.195000171661377 C5.736999988555908,-4.59499979019165 6.586999893188477,-5.543000221252441 7.199999809265137,-6.440999984741211 C7.71999979019165,-6.991000175476074 7.105999946594238,-7.741000175476074 6.492000102996826,-7.491000175476074z"/></g><g opacity="1" transform="matrix(1,0,0,1,3.194999933242798,14.10200023651123)"><path fill="rgb(246,188,174)" fill-opacity="1" d=" M-0.0010000000474974513,2.9509999752044678 C1.6260000467300415,2.9509999752044678 2.946000099182129,1.6299999952316284 2.946000099182129,0 C2.946000099182129,-1.6299999952316284 1.6260000467300415,-2.9509999752044678 -0.0010000000474974513,-2.9509999752044678 C-1.628000020980835,-2.9509999752044678 -2.946000099182129,-1.6299999952316284 -2.946000099182129,0 C-2.946000099182129,1.6299999952316284 -1.628000020980835,2.9509999752044678 -0.0010000000474974513,2.9509999752044678z"/></g><g opacity="1" transform="matrix(1,0,0,1,10.755999565124512,10.510000228881836)"><path fill="rgb(60,60,60)" fill-opacity="1" d=" M0.6790000200271606,0.23100000619888306 C0.7829999923706055,0.4880000054836273 1.0440000295639038,0.6420000195503235 1.3569999933242798,0.5389999747276306 C1.6180000305175781,0.4359999895095825 1.774999976158142,0.18000000715255737 1.6710000038146973,-0.12800000607967377 C1.4620000123977661,-0.6930000185966492 0.9399999976158142,-1.0520000457763672 0.2619999945163727,-1.0520000457763672 C-0.5730000138282776,-1.0520000457763672 -1.3569999933242798,-0.4869999885559082 -1.6699999570846558,0.33399999141693115 C-1.774999976158142,0.5899999737739563 -1.6180000305175781,0.8980000019073486 -1.3569999933242798,1.0010000467300415 C-1.3049999475479126,1.0010000467300415 -1.253000020980835,1.0520000457763672 -1.2009999752044678,1.0520000457763672 C-0.9919999837875366,1.0520000457763672 -0.7820000052452087,0.8980000019073486 -0.7300000190734863,0.6930000185966492 C-0.5210000276565552,0.18000000715255737 -0.10499999672174454,-0.026000000536441803 0.20800000429153442,-0.026000000536441803 C0.36500000953674316,0.026000000536441803 0.6269999742507935,0.026000000536441803 0.6790000200271606,0.23100000619888306z"/></g><g opacity="1" transform="matrix(1,0,0,1,13.842000007629395,12.305999755859375)"><path fill="rgb(60,60,60)" fill-opacity="1" d=" M2.869999885559082,-2.744999885559082 C2.7139999866485596,-3.1549999713897705 2.2950000762939453,-3.515000104904175 1.7730000019073486,-3.565999984741211 C1.5119999647140503,-3.565999984741211 0.8870000243186951,-3.566999912261963 0.36500000953674316,-2.9509999752044678 C0.26100000739097595,-3.003000020980835 0.15600000321865082,-3.052999973297119 0.050999999046325684,-3.052999973297119 C-0.20999999344348907,-3.002000093460083 -0.4169999957084656,-2.744999885559082 -0.4169999957084656,-2.48799991607666 C-0.31299999356269836,-1.6670000553131104 0.4180000126361847,-0.7440000176429749 0.9390000104904175,-0.23000000417232513 C0.9390000104904175,-0.23000000417232513 0.5210000276565552,0.12800000607967377 0.5210000276565552,0.12800000607967377 C0.4690000116825104,0.12800000607967377 0.4690000116825104,0.17900000512599945 0.4690000116825104,0.23000000417232513 C-0.05299999937415123,-0.07800000160932541 -0.6269999742507935,-0.23000000417232513 -1.2009999752044678,-0.12800000607967377 C-1.7230000495910645,-0.02500000037252903 -2.140000104904175,0.28299999237060547 -2.453000068664551,0.7960000038146973 C-2.9739999771118164,1.7200000286102295 -2.7139999866485596,2.3350000381469727 -2.505000114440918,2.6429998874664307 C-2.0350000858306885,3.309999942779541 -1.0959999561309814,3.565999984741211 -0.10400000214576721,3.565999984741211 C0.26100000739097595,3.565999984741211 0.6259999871253967,3.515000104904175 0.9390000104904175,3.4639999866485596 C1.4609999656677246,3.361999988555908 1.9830000400543213,2.9000000953674316 2.140000104904175,2.3350000381469727 C2.24399995803833,1.8220000267028809 2.0869998931884766,1.3600000143051147 1.6180000305175781,1.0010000467300415 C1.5130000114440918,0.949999988079071 1.409000039100647,0.847000002861023 1.3049999475479126,0.7450000047683716 C1.3049999475479126,0.7450000047683716 2.0350000858306885,0.12800000607967377 2.0350000858306885,0.12800000607967377 C2.140000104904175,0.02500000037252903 2.190999984741211,-0.12800000607967377 2.190999984741211,-0.23000000417232513 C2.190999984741211,-0.3840000033378601 2.140000104904175,-0.5379999876022339 2.0350000858306885,-0.5899999737739563 C1.6699999570846558,-0.8980000019073486 1.2000000476837158,-1.4620000123977661 0.8870000243186951,-1.975000023841858 C0.9390000104904175,-2.0260000228881836 0.9919999837875366,-2.0789999961853027 0.9919999837875366,-2.130000114440918 C1.2000000476837158,-2.437999963760376 1.409000039100647,-2.6429998874664307 1.6699999570846558,-2.6429998874664307 C1.8270000219345093,-2.6429998874664307 1.878999948501587,-2.5399999618530273 1.930999994277954,-2.5399999618530273 C2.0350000858306885,-2.2829999923706055 2.2960000038146973,-2.128999948501587 2.6089999675750732,-2.2320001125335693 C2.818000078201294,-2.2320001125335693 2.9749999046325684,-2.48799991607666 2.869999885559082,-2.744999885559082z M1.0959999561309814,2.130000114440918 C1.0440000295639038,2.2839999198913574 0.8339999914169312,2.48799991607666 0.7300000190734863,2.48799991607666 C-0.47099998593330383,2.693000078201294 -1.409999966621399,2.437999963760376 -1.6710000038146973,2.0789999961853027 C-1.7230000495910645,2.0269999504089355 -1.878999948501587,1.8220000267028809 -1.565000057220459,1.309000015258789 C-1.3569999933242798,0.949999988079071 -1.1480000019073486,0.8970000147819519 -1.0440000295639038,0.8460000157356262 C-1.0440000295639038,0.8460000157356262 -0.8870000243186951,0.8460000157356262 -0.8870000243186951,0.8460000157356262 C-0.4699999988079071,0.8460000157356262 0.20900000631809235,1.1549999713897705 0.9919999837875366,1.8220000267028809 C1.1480000019073486,1.9759999513626099 1.0959999561309814,2.0789999961853027 1.0959999561309814,2.130000114440918z"/></g><g opacity="1" transform="matrix(1,0,0,1,9.769000053405762,8.097999572753906)"><path fill="rgb(60,60,60)" fill-opacity="1" d=" M0.8870000243186951,0.28299999237060547 C1.2000000476837158,0.23199999332427979 1.3569999933242798,-0.07699999958276749 1.3049999475479126,-0.38499999046325684 C1.2519999742507935,-0.6930000185966492 0.9390000104904175,-0.847000002861023 0.6259999871253967,-0.7960000038146973 C0.5740000009536743,-0.7960000038146973 -0.31299999356269836,-0.5389999747276306 -0.9919999837875366,-0.18000000715255737 C-1.253000020980835,-0.026000000536441803 -1.3569999933242798,0.3330000042915344 -1.2000000476837158,0.5899999737739563 C-1.0959999561309814,0.7440000176429749 -0.8870000243186951,0.8460000157356262 -0.7310000061988831,0.8460000157356262 C-0.6259999871253967,0.8460000157356262 -0.5220000147819519,0.847000002861023 -0.4699999988079071,0.7960000038146973 C0.10400000214576721,0.4880000054836273 0.8870000243186951,0.28299999237060547 0.8870000243186951,0.28299999237060547z"/></g><g opacity="1" transform="matrix(1,0,0,1,13.972000122070312,7.020999908447266)"><path fill="rgb(60,60,60)" fill-opacity="1" d=" M-0.23499999940395355,0.5899999737739563 C-0.23499999940395355,0.5899999737739563 -0.18299999833106995,0.5899999737739563 -0.18299999833106995,0.5899999737739563 C-0.18299999833106995,0.5899999737739563 0.28700000047683716,0.5389999747276306 0.28700000047683716,0.5389999747276306 C0.6000000238418579,0.4869999885559082 0.8090000152587891,0.23100000619888306 0.8090000152587891,-0.07699999958276749 C0.7570000290870667,-0.38499999046325684 0.4959999918937683,-0.5899999737739563 0.18199999630451202,-0.5899999737739563 C0.18199999630451202,-0.5899999737739563 -0.28700000047683716,-0.5389999747276306 -0.28700000047683716,-0.5389999747276306 C-0.6000000238418579,-0.4880000054836273 -0.8090000152587891,-0.23100000619888306 -0.8090000152587891,0.07699999958276749 C-0.7570000290870667,0.38499999046325684 -0.4959999918937683,0.5899999737739563 -0.23499999940395355,0.5899999737739563z"/></g></g><g clip-path="url(#__lottie_element_9)" filter="url(#__lottie_element_11)" style="display: block;" transform="matrix(1,0,0,1,289.5,-4)" opacity="1"><g style="display: block;" transform="matrix(1,0,0,1,29.533000946044922,29.583995819091797)" opacity="1"><g opacity="1" transform="matrix(1,0,0,1,50.32500076293945,50.32500076293945)"><path fill="rgb(255,255,255)" fill-opacity="1" d=" M0,-50.07500076293945 C27.6560001373291,-50.07500076293945 50.07500076293945,-27.6560001373291 50.07500076293945,0 C50.07500076293945,27.655000686645508 27.6560001373291,50.07500076293945 0,50.07500076293945 C-27.6560001373291,50.07500076293945 -50.07500076293945,27.655000686645508 -50.07500076293945,0 C-50.07500076293945,-27.6560001373291 -27.6560001373291,-50.07500076293945 0,-50.07500076293945z"/></g></g><g style="display: block;" transform="matrix(1,0,0,1,145.5,-14.5)" opacity="1"><g opacity="1" transform="matrix(1,0,0,1,0,0)"><path stroke-linecap="round" stroke-linejoin="round" fill-opacity="0" stroke="rgb(78,152,80)" stroke-opacity="1" stroke-width="10" d=" M-91,87.25 C-91,87.25 -69.25,109.75 -69.25,109.75 C-69.25,109.75 -43.5,75.25 -43.5,75.25"/></g></g></g></g></g></svg>